<?xml version="1.0" encoding="UTF-8"?>
<!DOCTYPE svg PUBLIC "-//W3C//DTD SVG 1.1//EN" "http://www.w3.org/Graphics/SVG/1.1/DTD/svg11.dtd">
<!-- Creator: CorelDRAW X6 -->
<svg xmlns="http://www.w3.org/2000/svg" xml:space="preserve" width="128px" height="80px" version="1.1" style="shape-rendering:geometricPrecision; text-rendering:geometricPrecision; image-rendering:optimizeQuality; fill-rule:evenodd; clip-rule:evenodd"
viewBox="0 0 128 80"
 xmlns:xlink="http://www.w3.org/1999/xlink">
 <defs>
  <style type="text/css">
   <![CDATA[
    .fil0 {fill:#183D72}
   ]]>
  </style>
 </defs>
 <g id="Layer_x0020_1">
  <metadata id="CorelCorpID_0Corel-Layer"/>
  <path class="fil0" d="M1 75l115 0 -1 6 -115 0 1 -6zm87 -7l23 0 4 -14 -17 0 -6 0 5 -20 -12 0 -9 34 -1 6 -73 0 1 -6c21,0 43,0 64,0l4 0 9 -34 -14 0 0 -6 31 0c-4,-13 -16,-23 -30,-23 -17,0 -31,14 -31,31 0,15 10,27 24,30l-13 0c-10,-7 -16,-18 -16,-30 0,-20 16,-37 36,-37 17,0 32,12 36,28l25 0 -1 6 -23 0 0 0 -4 15 23 0 -3 14 -2 6 -1 6 -29 0 1 -6z"/>
 </g>
</svg>
