<?xml version="1.0" standalone="yes"?>
<svg xmlns="http://www.w3.org/2000/svg" width="200" height="200">
<path style="fill:#259bd8; stroke:none;" d="M115.667 29.3333C115.222 29.7778 116.278 29.7222 116.333 29.6667C116.778 29.2222 115.722 29.2778 115.667 29.3333z"/>
<path style="fill:#d1d9e2; stroke:none;" d="M116.001 31.3454C110.789 34.994 101.611 71.7801 110.764 71.0125C117.805 70.422 123.406 44.3729 129.659 47.0029C132.211 48.0761 110.305 84.1106 125.004 77.8943C130.626 75.5167 151.649 56.393 150.239 50.0187C148.681 42.9797 123.034 26.4225 116.001 31.3454z"/>
<path style="fill:#259bd8; stroke:none;" d="M119.667 30.3333C119.222 30.7778 120.278 30.7223 120.333 30.6667C120.778 30.2222 119.722 30.2778 119.667 30.3333M88 31.4792C4.13269 43.9389 15.4604 172.857 100 170.952C134.71 170.17 163.487 144.22 168.279 110C169.515 101.176 167.597 58.6433 153.325 58.6433C149.817 58.6433 155.13 67.0356 155.654 68C162.105 79.8682 165.401 93.5083 163.397 107C158.67 138.818 129.694 164.528 97 162.921C39.6088 160.101 16.1729 87.0555 59.0001 50.3633C69.1255 41.6884 82.5968 35.7892 96 35.0786C97.8742 34.9793 108.357 36.0774 108.357 33C108.357 29.3461 90.4872 31.1097 88 31.4792M114.333 31.6667C114.278 31.7222 114.222 32.7778 114.667 32.3333C114.722 32.2777 114.778 31.2223 114.333 31.6667M122.667 31.3333C122.222 31.7778 123.278 31.7222 123.333 31.6667C123.778 31.2222 122.722 31.2778 122.667 31.3333M125 32L126 33L125 32M128 33L129 34L128 33M130 34L131 35L130 34M113 35L114 36L113 35M132 35L133 36L132 35M134 36L135 37L134 36M137 38L138 39L137 38M112 39L113 40L112 39M140 40L141 41L140 40M101 64C87.3453 63.7896 91.0611 41.9165 83.8707 42.1057C80.7353 42.1883 90.3018 83.0046 71 67.7474C68.1256 65.4753 65.8501 62.5218 63.0036 60.2178C61.5627 59.0515 56.6433 56.1361 56.6433 60.2178C56.6433 82.4327 96.6753 79.3399 101 64M111.333 42.6667C111.278 42.7222 111.222 43.7778 111.667 43.3333C111.722 43.2777 111.778 42.2223 111.333 42.6667M143 42C143.545 43.6351 143.365 43.4549 145 44C144.455 42.3649 144.635 42.5451 143 42M127 45L128 46L127 45M129 45L130 46L129 45M110.333 46.6667C110.278 46.7222 110.222 47.7778 110.667 47.3333C110.722 47.2777 110.778 46.2223 110.333 46.6667M126 47L127 48L126 47M132 47L131 50C132.289 48.5574 132.401 48.7663 132 47M149 47L152 51L153 50L149 47M125 49L126 50L125 49M109 50L110 51L109 50M130 51L131 52L130 51M123 52L124 53L123 52M108.333 53.6667C108.278 53.7222 108.222 54.7778 108.667 54.3333C108.722 54.2777 108.778 53.2223 108.333 53.6667M122 54L123 55L122 54M128 54L129 55L128 54M121 56L122 57L121 56M127 56L128 57L127 56M107.333 57.6667C107.278 57.7222 107.222 58.7778 107.667 58.3333C107.722 58.2778 107.778 57.2223 107.333 57.6667M120 58L121 59L120 58M125 59L126 60L125 59M106 61L107 62L106 61M118 61L119 62L118 61M124 61L125 62L124 61M117 63L118 64L117 63M122 64L123 65L122 64M105 65L106 66L105 65M116 65L117 66L116 65M121 66L122 67L121 66M115 67L116 68L115 67M104.333 68.6667C104.278 68.7222 104.222 69.7778 104.667 69.3333C104.722 69.2778 104.778 68.2222 104.333 68.6667M119 69L120 70L119 69M106.667 70.3333C106.222 70.7778 107.278 70.7222 107.333 70.6667C107.778 70.2223 106.722 70.2777 106.667 70.3333M113 70L114 71L113 70M109 71L110 72L109 71M118 71L119 72L118 71M112 72L113 73L112 72M117 73L118 74L117 73M117 75C117.545 76.6352 117.365 76.4549 119 77C118.455 75.3648 118.635 75.5451 117 75M128.365 82.7603C124.559 84.2688 129.395 94.2812 129.739 97C130.224 100.843 127.975 106.938 129.658 110.322C131.584 114.194 151.503 119.601 155.245 117.509C157.362 116.325 132.454 107.482 136.259 96.3465C138.976 88.3988 154.12 93.4922 157.272 86.422C159.969 80.3741 138.488 87.2689 136.184 86.9809C133.54 86.6503 130.873 81.7665 128.365 82.7603M81 156C88.9534 156.907 100.302 118.364 108.561 148C109.483 151.308 110.282 154.642 111 158C122.65 153.591 107.362 142.188 113.738 135.384C122.645 125.877 138.948 144.273 140.456 141.351C142.811 136.787 127.983 123.664 124 122.754C118.072 121.398 108.115 131.1 101 131.745C86.437 133.064 71.5574 121.037 68.5963 107C67.6361 102.449 70.0617 94.5634 67.604 90.7411C65.5081 87.4815 45.246 81.381 42.6493 84.8348C40.4839 87.7149 61.9408 93.0499 61.9408 100.993C61.9408 109.968 41.6252 111.262 43.2237 115.683C45.2222 121.211 59.8083 112.06 64.258 115.738C77.225 126.457 54.0634 132.69 58.3231 140.351C60.9089 145.001 71.272 132.363 74 131.486C90.0037 126.338 82.7078 149.868 81 156z"/>
<path style="fill:#d1d9e2; stroke:none;" d="M74 91C87.1042 91.455 79.6155 108.327 78 117C90.8519 116.551 85.4524 102.413 90.4938 94.2832C93.1708 89.9662 98.4183 90.0373 101 85C92.5294 85 77.9918 81.7127 74 91M91 117C99.2133 116.715 100.72 107.958 107.997 107.432C113.659 107.022 115.904 119.024 120.45 115.108C124.216 111.865 121.126 87.3008 116.502 85.5024C105.157 81.0901 93.8748 108.87 91 117z"/>
<path style="fill:#259bd8; stroke:none;" d="M100 86L101 87L100 86M107 86L108 87L107 86M74 88L75 89L74 88M106 88L107 89L106 88M119 89L119 92C119.696 90.4463 119.696 90.5537 119 89M73 90L74 91L73 90M105 90L106 91L105 90M82.3333 92.6667C82.2778 92.7222 82.2222 93.7778 82.6667 93.3333C82.7222 93.2778 82.7778 92.2222 82.3333 92.6667M103 93L104 94L103 93M109 96C110.635 95.4549 110.455 95.6351 111 94C109.365 94.5451 109.545 94.3648 109 96M112 94L113 95L112 94M89 95L89 98C89.6961 96.4463 89.6961 96.5537 89 95M102 95L103 96L102 95M120 96L120 99C120.696 97.4463 120.696 97.5537 120 96M81.3333 97.6667C81.2778 97.7222 81.2222 98.7778 81.6667 98.3333C81.7222 98.2778 81.7778 97.2222 81.3333 97.6667M101 97L102 98L101 97M108 97L109 98L108 97M107 99L108 100L107 99M99 100L100 101L99 100M88.3333 101.667C88.2778 101.722 88.2222 102.778 88.6667 102.333C88.7222 102.278 88.7778 101.222 88.3333 101.667M107 101L108 102L107 101M112 101L113 102L112 101M80.3333 102.667C80.2778 102.722 80.2222 103.778 80.6667 103.333C80.7222 103.278 80.7778 102.222 80.3333 102.667M98 102L99 103L98 102M121.333 103.667C121.278 103.722 121.222 104.778 121.667 104.333C121.722 104.278 121.778 103.222 121.333 103.667M97 104L98 105L97 104M87.3333 106.667C87.2778 106.722 87.2222 107.778 87.6667 107.333C87.7222 107.278 87.7778 106.222 87.3333 106.667M79.3333 107.667C79.2778 107.722 79.2222 108.778 79.6667 108.333C79.7222 108.278 79.7778 107.222 79.3333 107.667M95 107L96 108L95 107M104 107C106.981 108.013 109.863 107.988 113 108C110.02 106.987 107.137 107.012 104 107M94 109L95 110L94 109M114 109L114 112C114.696 110.446 114.696 110.554 114 109M122 109L122 112C122.696 110.446 122.696 110.554 122 109M101 110L102 111L101 110M86.3333 111.667C86.2778 111.722 86.2222 112.778 86.6667 112.333C86.7222 112.278 86.7778 111.222 86.3333 111.667M93 111L94 112L93 111M100 112L101 113L100 112M78.3333 113.667C78.2778 113.722 78.2222 114.778 78.6667 114.333C78.7222 114.278 78.7778 113.222 78.3333 113.667M91 114L92 115L91 114M99 114L100 115L99 114M120 117C121.635 116.455 121.455 116.635 122 115C120.365 115.545 120.545 115.365 120 117M85 116L86 117L85 116M90 116L91 117L90 116M115 116L116 117L115 116z"/>
</svg>
